<svg id="visual" viewBox="0 0 900 600" width="900" height="600" xmlns="http://www.w3.org/2000/svg" xmlns:xlink="http://www.w3.org/1999/xlink" version="1.1"><g stroke-width="1" stroke-linejoin="bevel"><path d="M453.6 316.3L482.6 291.7L423.4 282.7Z" fill="#ffe6c5" stroke="#ffe6c5"></path><path d="M423.4 282.7L409.4 344.3L453.6 316.3Z" fill="#febf66" stroke="#febf66"></path><path d="M482.6 291.7L462.6 213L423.4 282.7Z" fill="#febf66" stroke="#febf66"></path><path d="M462.6 213L409.4 218L423.4 282.7Z" fill="#fff7ec" stroke="#fff7ec"></path><path d="M423.4 282.7L358.2 305.3L409.4 344.3Z" fill="#fcaf3c" stroke="#fcaf3c"></path><path d="M330.2 244.7L358.2 305.3L423.4 282.7Z" fill="#ffd69f" stroke="#ffd69f"></path><path d="M440.4 444.7L441.4 383L341.2 403Z" fill="#febf66" stroke="#febf66"></path><path d="M409.4 344.3L441.4 383L453.6 316.3Z" fill="#febf66" stroke="#febf66"></path><path d="M453.6 316.3L573.8 342.3L482.6 291.7Z" fill="#ffeed8" stroke="#ffeed8"></path><path d="M441.4 383L467.6 406L453.6 316.3Z" fill="#fdb752" stroke="#fdb752"></path><path d="M409.4 218L330.2 244.7L423.4 282.7Z" fill="#ffdeb2" stroke="#ffdeb2"></path><path d="M573.8 342.3L582.8 292.7L482.6 291.7Z" fill="#ffdeb2" stroke="#ffdeb2"></path><path d="M482.6 291.7L527.8 178L462.6 213Z" fill="#ffdeb2" stroke="#ffdeb2"></path><path d="M582.8 292.7L527.8 178L482.6 291.7Z" fill="#ffce8c" stroke="#ffce8c"></path><path d="M402.4 123.3L361.2 190L409.4 218Z" fill="#fdb752" stroke="#fdb752"></path><path d="M409.4 218L361.2 190L330.2 244.7Z" fill="#ffeed8" stroke="#ffeed8"></path><path d="M467.6 406L573.8 342.3L453.6 316.3Z" fill="#ffffff" stroke="#ffffff"></path><path d="M402.4 123.3L409.4 218L462.6 213Z" fill="#ffe6c5" stroke="#ffe6c5"></path><path d="M527.8 178L503.6 161.3L462.6 213Z" fill="#ffc779" stroke="#ffc779"></path><path d="M341.2 403L441.4 383L409.4 344.3Z" fill="#ffce8c" stroke="#ffce8c"></path><path d="M441.4 383L440.4 444.7L467.6 406Z" fill="#ffeed8" stroke="#ffeed8"></path><path d="M467.6 406L577.8 410L573.8 342.3Z" fill="#ffce8c" stroke="#ffce8c"></path><path d="M284.9 312.3L341.2 403L358.2 305.3Z" fill="#ffdeb2" stroke="#ffdeb2"></path><path d="M358.2 305.3L341.2 403L409.4 344.3Z" fill="#fcaf3c" stroke="#fcaf3c"></path><path d="M270.9 278.7L284.9 312.3L330.2 244.7Z" fill="#ffd69f" stroke="#ffd69f"></path><path d="M330.2 244.7L284.9 312.3L358.2 305.3Z" fill="#ffd69f" stroke="#ffd69f"></path><path d="M503.6 161.3L402.4 123.3L462.6 213Z" fill="#ffdeb2" stroke="#ffdeb2"></path><path d="M361.2 190L268.9 192L330.2 244.7Z" fill="#ffdeb2" stroke="#ffdeb2"></path><path d="M402.4 123.3L358.2 143.3L361.2 190Z" fill="#ffe6c5" stroke="#ffe6c5"></path><path d="M582.8 292.7L607.1 206L527.8 178Z" fill="#ffd69f" stroke="#ffd69f"></path><path d="M527.8 178L535.8 118.3L503.6 161.3Z" fill="#fdb752" stroke="#fdb752"></path><path d="M627.1 257.7L607.1 206L582.8 292.7Z" fill="#ffffff" stroke="#ffffff"></path><path d="M552.8 469.7L577.8 410L467.6 406Z" fill="#fff7ec" stroke="#fff7ec"></path><path d="M642.1 318.3L627.1 257.7L582.8 292.7Z" fill="#ffeed8" stroke="#ffeed8"></path><path d="M642.1 318.3L582.8 292.7L573.8 342.3Z" fill="#ffce8c" stroke="#ffce8c"></path><path d="M268.9 192L270.9 278.7L330.2 244.7Z" fill="#ffd69f" stroke="#ffd69f"></path><path d="M607.1 206L535.8 118.3L527.8 178Z" fill="#ffdeb2" stroke="#ffdeb2"></path><path d="M503.6 161.3L432.4 87.7L402.4 123.3Z" fill="#fdb752" stroke="#fdb752"></path><path d="M635.1 392L642.1 318.3L573.8 342.3Z" fill="#ffd69f" stroke="#ffd69f"></path><path d="M463.6 538.3L500.6 476.7L440.4 444.7Z" fill="#fdb752" stroke="#fdb752"></path><path d="M440.4 444.7L500.6 476.7L467.6 406Z" fill="#fcaf3c" stroke="#fcaf3c"></path><path d="M535.8 118.3L432.4 87.7L503.6 161.3Z" fill="#fcaf3c" stroke="#fcaf3c"></path><path d="M402.4 123.3L334.2 71.7L358.2 143.3Z" fill="#febf66" stroke="#febf66"></path><path d="M284.9 312.3L271.9 385L341.2 403Z" fill="#ffffff" stroke="#ffffff"></path><path d="M341.2 403L372.2 490.7L440.4 444.7Z" fill="#ffd69f" stroke="#ffd69f"></path><path d="M214.7 348.3L271.9 385L284.9 312.3Z" fill="#fcaf3c" stroke="#fcaf3c"></path><path d="M278.9 154.3L361.2 190L358.2 143.3Z" fill="#febf66" stroke="#febf66"></path><path d="M278.9 154.3L268.9 192L361.2 190Z" fill="#fff7ec" stroke="#fff7ec"></path><path d="M270.9 278.7L214.7 348.3L284.9 312.3Z" fill="#ffdeb2" stroke="#ffdeb2"></path><path d="M500.6 476.7L552.8 469.7L467.6 406Z" fill="#fcaf3c" stroke="#fcaf3c"></path><path d="M577.8 410L635.1 392L573.8 342.3Z" fill="#ffeed8" stroke="#ffeed8"></path><path d="M649.1 444.7L635.1 392L577.8 410Z" fill="#ffffff" stroke="#ffffff"></path><path d="M664.3 395L667.3 311.3L642.1 318.3Z" fill="#fcaf3c" stroke="#fcaf3c"></path><path d="M642.1 318.3L667.3 311.3L627.1 257.7Z" fill="#ffdeb2" stroke="#ffdeb2"></path><path d="M673.3 186L643.1 147.3L607.1 206Z" fill="#ffc779" stroke="#ffc779"></path><path d="M334.2 71.7L278.9 154.3L358.2 143.3Z" fill="#fdb752" stroke="#fdb752"></path><path d="M264.9 459.7L372.2 490.7L341.2 403Z" fill="#fdb752" stroke="#fdb752"></path><path d="M372.2 490.7L408.4 506.3L440.4 444.7Z" fill="#fff7ec" stroke="#fff7ec"></path><path d="M500.6 476.7L559.8 515.3L552.8 469.7Z" fill="#fcaf3c" stroke="#fcaf3c"></path><path d="M535.8 118.3L463.6 58.7L432.4 87.7Z" fill="#ffc779" stroke="#ffc779"></path><path d="M432.4 87.7L334.2 71.7L402.4 123.3Z" fill="#ffe6c5" stroke="#ffe6c5"></path><path d="M673.3 186L607.1 206L627.1 257.7Z" fill="#ffdeb2" stroke="#ffdeb2"></path><path d="M607.1 206L643.1 147.3L535.8 118.3Z" fill="#ffdeb2" stroke="#ffdeb2"></path><path d="M535.8 118.3L526.8 37.7L463.6 58.7Z" fill="#ffd69f" stroke="#ffd69f"></path><path d="M649.1 444.7L664.3 395L635.1 392Z" fill="#fff7ec" stroke="#fff7ec"></path><path d="M635.1 392L664.3 395L642.1 318.3Z" fill="#fff7ec" stroke="#fff7ec"></path><path d="M703.3 258.7L627.1 257.7L667.3 311.3Z" fill="#ffc779" stroke="#ffc779"></path><path d="M703.3 258.7L673.3 186L627.1 257.7Z" fill="#ffdeb2" stroke="#ffdeb2"></path><path d="M409.4 0L334.2 71.7L432.4 87.7Z" fill="#ffc779" stroke="#ffc779"></path><path d="M200.7 243.7L270.9 278.7L268.9 192Z" fill="#ffe6c5" stroke="#ffe6c5"></path><path d="M200.7 243.7L214.7 348.3L270.9 278.7Z" fill="#ffeed8" stroke="#ffeed8"></path><path d="M271.9 385L264.9 459.7L341.2 403Z" fill="#ffc779" stroke="#ffc779"></path><path d="M752.5 320.3L703.3 258.7L667.3 311.3Z" fill="#fdb752" stroke="#fdb752"></path><path d="M552.8 469.7L649.1 444.7L577.8 410Z" fill="#fdb752" stroke="#fdb752"></path><path d="M478.6 600L463.6 538.3L415.4 600Z" fill="#ffffff" stroke="#ffffff"></path><path d="M408.4 506.3L463.6 538.3L440.4 444.7Z" fill="#febf66" stroke="#febf66"></path><path d="M552.8 469.7L602.1 510.3L649.1 444.7Z" fill="#ffce8c" stroke="#ffce8c"></path><path d="M463.6 538.3L559.8 515.3L500.6 476.7Z" fill="#fcaf3c" stroke="#fcaf3c"></path><path d="M215.7 398L264.9 459.7L271.9 385Z" fill="#fff7ec" stroke="#fff7ec"></path><path d="M372.2 490.7L327.2 519.3L408.4 506.3Z" fill="#fdb752" stroke="#fdb752"></path><path d="M186.7 218L268.9 192L228.7 126.3Z" fill="#ffce8c" stroke="#ffce8c"></path><path d="M186.7 218L200.7 243.7L268.9 192Z" fill="#ffdeb2" stroke="#ffdeb2"></path><path d="M607.1 53.7L526.8 37.7L535.8 118.3Z" fill="#ffc779" stroke="#ffc779"></path><path d="M463.6 58.7L409.4 0L432.4 87.7Z" fill="#ffe6c5" stroke="#ffe6c5"></path><path d="M185.7 441.7L215.7 398L147.5 378Z" fill="#ffffff" stroke="#ffffff"></path><path d="M214.7 348.3L215.7 398L271.9 385Z" fill="#ffdeb2" stroke="#ffdeb2"></path><path d="M264.9 459.7L327.2 519.3L372.2 490.7Z" fill="#fcaf3c" stroke="#fcaf3c"></path><path d="M648.1 600L602.1 510.3L559.8 515.3Z" fill="#fdb752" stroke="#fdb752"></path><path d="M559.8 515.3L602.1 510.3L552.8 469.7Z" fill="#ffce8c" stroke="#ffce8c"></path><path d="M228.7 126.3L268.9 192L278.9 154.3Z" fill="#ffd69f" stroke="#ffd69f"></path><path d="M200.7 243.7L164.5 240.7L214.7 348.3Z" fill="#fcaf3c" stroke="#fcaf3c"></path><path d="M257.9 39.7L228.7 126.3L278.9 154.3Z" fill="#ffc779" stroke="#ffc779"></path><path d="M672.3 78.7L607.1 53.7L643.1 147.3Z" fill="#ffce8c" stroke="#ffce8c"></path><path d="M643.1 147.3L607.1 53.7L535.8 118.3Z" fill="#fcaf3c" stroke="#fcaf3c"></path><path d="M575.8 0L458.6 0L526.8 37.7Z" fill="#ffdeb2" stroke="#ffdeb2"></path><path d="M526.8 37.7L458.6 0L463.6 58.7Z" fill="#fdb752" stroke="#fdb752"></path><path d="M334.2 71.7L257.9 39.7L278.9 154.3Z" fill="#fcaf3c" stroke="#fcaf3c"></path><path d="M458.6 0L409.4 0L463.6 58.7Z" fill="#ffffff" stroke="#ffffff"></path><path d="M151.5 189L164.5 240.7L186.7 218Z" fill="#ffeed8" stroke="#ffeed8"></path><path d="M186.7 218L164.5 240.7L200.7 243.7Z" fill="#ffe6c5" stroke="#ffe6c5"></path><path d="M187.7 540.3L296.9 541.3L264.9 459.7Z" fill="#ffc779" stroke="#ffc779"></path><path d="M264.9 459.7L296.9 541.3L327.2 519.3Z" fill="#ffdeb2" stroke="#ffdeb2"></path><path d="M415.4 600L463.6 538.3L408.4 506.3Z" fill="#fff7ec" stroke="#fff7ec"></path><path d="M673.3 186L699.3 115.3L643.1 147.3Z" fill="#ffe6c5" stroke="#ffe6c5"></path><path d="M764.5 179L699.3 115.3L673.3 186Z" fill="#ffe6c5" stroke="#ffe6c5"></path><path d="M721.3 463.7L664.3 395L649.1 444.7Z" fill="#fcaf3c" stroke="#fcaf3c"></path><path d="M766.5 392L752.5 320.3L664.3 395Z" fill="#ffffff" stroke="#ffffff"></path><path d="M664.3 395L752.5 320.3L667.3 311.3Z" fill="#ffeed8" stroke="#ffeed8"></path><path d="M703.3 258.7L764.5 179L673.3 186Z" fill="#ffdeb2" stroke="#ffdeb2"></path><path d="M699.3 115.3L672.3 78.7L643.1 147.3Z" fill="#ffffff" stroke="#ffffff"></path><path d="M409.4 0L352.2 0L334.2 71.7Z" fill="#ffd69f" stroke="#ffd69f"></path><path d="M215.7 398L185.7 441.7L264.9 459.7Z" fill="#fdb752" stroke="#fdb752"></path><path d="M147.5 378L215.7 398L214.7 348.3Z" fill="#ffe6c5" stroke="#ffe6c5"></path><path d="M607.1 53.7L575.8 0L526.8 37.7Z" fill="#ffce8c" stroke="#ffce8c"></path><path d="M649.1 0L575.8 0L607.1 53.7Z" fill="#ffc779" stroke="#ffc779"></path><path d="M302.9 0L257.9 39.7L334.2 71.7Z" fill="#fcaf3c" stroke="#fcaf3c"></path><path d="M228.7 126.3L151.5 189L186.7 218Z" fill="#ffdeb2" stroke="#ffdeb2"></path><path d="M415.4 600L408.4 506.3L327.2 519.3Z" fill="#fcaf3c" stroke="#fcaf3c"></path><path d="M463.6 538.3L527.8 600L559.8 515.3Z" fill="#ffeed8" stroke="#ffeed8"></path><path d="M331.2 600L415.4 600L327.2 519.3Z" fill="#ffd69f" stroke="#ffd69f"></path><path d="M142.5 158.3L151.5 189L228.7 126.3Z" fill="#fdb752" stroke="#fdb752"></path><path d="M117.5 308.3L147.5 378L214.7 348.3Z" fill="#febf66" stroke="#febf66"></path><path d="M752.5 320.3L769.5 245.7L703.3 258.7Z" fill="#febf66" stroke="#febf66"></path><path d="M117.5 308.3L214.7 348.3L164.5 240.7Z" fill="#ffffff" stroke="#ffffff"></path><path d="M707.3 514.3L649.1 444.7L602.1 510.3Z" fill="#fff7ec" stroke="#fff7ec"></path><path d="M707.3 514.3L721.3 463.7L649.1 444.7Z" fill="#ffd69f" stroke="#ffd69f"></path><path d="M752.5 320.3L823.8 278.7L769.5 245.7Z" fill="#fcaf3c" stroke="#fcaf3c"></path><path d="M478.6 600L527.8 600L463.6 538.3Z" fill="#ffc779" stroke="#ffc779"></path><path d="M352.2 0L302.9 0L334.2 71.7Z" fill="#ffdeb2" stroke="#ffdeb2"></path><path d="M769.5 245.7L764.5 179L703.3 258.7Z" fill="#fdb752" stroke="#fdb752"></path><path d="M664.3 0L649.1 0L672.3 78.7Z" fill="#febf66" stroke="#febf66"></path><path d="M721.3 463.7L766.5 392L664.3 395Z" fill="#febf66" stroke="#febf66"></path><path d="M178.7 0L221.7 49.7L257.9 39.7Z" fill="#ffd69f" stroke="#ffd69f"></path><path d="M257.9 39.7L221.7 49.7L228.7 126.3Z" fill="#fdb752" stroke="#fdb752"></path><path d="M147.5 46.7L142.5 158.3L228.7 126.3Z" fill="#ffffff" stroke="#ffffff"></path><path d="M57.2 265.7L117.5 308.3L164.5 240.7Z" fill="#ffdeb2" stroke="#ffdeb2"></path><path d="M87.2 333.3L117.5 308.3L57.2 265.7Z" fill="#fff7ec" stroke="#fff7ec"></path><path d="M296.9 541.3L331.2 600L327.2 519.3Z" fill="#ffdeb2" stroke="#ffdeb2"></path><path d="M259.9 600L331.2 600L296.9 541.3Z" fill="#fff7ec" stroke="#fff7ec"></path><path d="M648.1 600L707.3 514.3L602.1 510.3Z" fill="#ffeed8" stroke="#ffeed8"></path><path d="M721.3 463.7L771.5 436.7L766.5 392Z" fill="#ffc779" stroke="#ffc779"></path><path d="M741.5 64.7L672.3 78.7L699.3 115.3Z" fill="#ffdeb2" stroke="#ffdeb2"></path><path d="M672.3 78.7L649.1 0L607.1 53.7Z" fill="#ffce8c" stroke="#ffce8c"></path><path d="M829.8 475.7L771.5 436.7L721.3 463.7Z" fill="#ffe6c5" stroke="#ffe6c5"></path><path d="M839.8 326.3L823.8 278.7L752.5 320.3Z" fill="#ffe6c5" stroke="#ffe6c5"></path><path d="M68.2 472.7L165.5 490.7L185.7 441.7Z" fill="#ffe6c5" stroke="#ffe6c5"></path><path d="M185.7 441.7L165.5 490.7L264.9 459.7Z" fill="#ffffff" stroke="#ffffff"></path><path d="M140.5 530.3L165.5 490.7L68.2 472.7Z" fill="#ffeed8" stroke="#ffeed8"></path><path d="M764.5 179L767.5 124.3L699.3 115.3Z" fill="#febf66" stroke="#febf66"></path><path d="M839.8 193L767.5 124.3L764.5 179Z" fill="#fcaf3c" stroke="#fcaf3c"></path><path d="M741.5 64.7L664.3 0L672.3 78.7Z" fill="#ffce8c" stroke="#ffce8c"></path><path d="M767.5 124.3L741.5 64.7L699.3 115.3Z" fill="#ffdeb2" stroke="#ffdeb2"></path><path d="M165.5 490.7L187.7 540.3L264.9 459.7Z" fill="#ffce8c" stroke="#ffce8c"></path><path d="M187.7 540.3L259.9 600L296.9 541.3Z" fill="#fff7ec" stroke="#fff7ec"></path><path d="M78.2 196L164.5 240.7L151.5 189Z" fill="#fcaf3c" stroke="#fcaf3c"></path><path d="M117.5 308.3L87.2 333.3L147.5 378Z" fill="#ffce8c" stroke="#ffce8c"></path><path d="M165.5 490.7L140.5 530.3L187.7 540.3Z" fill="#fff7ec" stroke="#fff7ec"></path><path d="M527.8 600L648.1 600L559.8 515.3Z" fill="#febf66" stroke="#febf66"></path><path d="M707.3 514.3L741.5 552.3L721.3 463.7Z" fill="#fcaf3c" stroke="#fcaf3c"></path><path d="M839.8 326.3L752.5 320.3L766.5 392Z" fill="#fdb752" stroke="#fdb752"></path><path d="M769.5 245.7L839.8 193L764.5 179Z" fill="#ffdeb2" stroke="#ffdeb2"></path><path d="M65.2 107.3L78.2 196L142.5 158.3Z" fill="#ffeed8" stroke="#ffeed8"></path><path d="M142.5 158.3L78.2 196L151.5 189Z" fill="#fdb752" stroke="#fdb752"></path><path d="M178.7 0L147.5 46.7L221.7 49.7Z" fill="#ffc779" stroke="#ffc779"></path><path d="M221.7 49.7L147.5 46.7L228.7 126.3Z" fill="#febf66" stroke="#febf66"></path><path d="M844.8 393L839.8 326.3L766.5 392Z" fill="#fff7ec" stroke="#fff7ec"></path><path d="M648.1 600L685.3 600L707.3 514.3Z" fill="#ffce8c" stroke="#ffce8c"></path><path d="M771.5 436.7L844.8 393L766.5 392Z" fill="#ffc779" stroke="#ffc779"></path><path d="M685.3 600L741.5 552.3L707.3 514.3Z" fill="#ffffff" stroke="#ffffff"></path><path d="M78.2 196L57.2 265.7L164.5 240.7Z" fill="#ffc779" stroke="#ffc779"></path><path d="M68.2 472.7L185.7 441.7L147.5 378Z" fill="#ffc779" stroke="#ffc779"></path><path d="M187.7 540.3L190.7 600L259.9 600Z" fill="#ffc779" stroke="#ffc779"></path><path d="M62.2 398L147.5 378L87.2 333.3Z" fill="#febf66" stroke="#febf66"></path><path d="M302.9 0L178.7 0L257.9 39.7Z" fill="#fcaf3c" stroke="#fcaf3c"></path><path d="M900 255.7L839.8 193L823.8 278.7Z" fill="#ffce8c" stroke="#ffce8c"></path><path d="M823.8 278.7L839.8 193L769.5 245.7Z" fill="#febf66" stroke="#febf66"></path><path d="M767.5 124.3L800.8 35.7L741.5 64.7Z" fill="#febf66" stroke="#febf66"></path><path d="M829.8 475.7L844.8 393L771.5 436.7Z" fill="#ffeed8" stroke="#ffeed8"></path><path d="M900 184L858.8 144.3L839.8 193Z" fill="#ffffff" stroke="#ffffff"></path><path d="M0 312.3L62.2 398L87.2 333.3Z" fill="#ffeed8" stroke="#ffeed8"></path><path d="M140.5 530.3L190.7 600L187.7 540.3Z" fill="#fdb752" stroke="#fdb752"></path><path d="M178.7 0L152.5 0L147.5 46.7Z" fill="#ffc779" stroke="#ffc779"></path><path d="M147.5 46.7L65.2 107.3L142.5 158.3Z" fill="#ffd69f" stroke="#ffd69f"></path><path d="M741.5 552.3L829.8 475.7L721.3 463.7Z" fill="#ffc779" stroke="#ffc779"></path><path d="M0 209L0 268.7L57.2 265.7Z" fill="#ffd69f" stroke="#ffd69f"></path><path d="M94.2 46.7L65.2 107.3L147.5 46.7Z" fill="#fdb752" stroke="#fdb752"></path><path d="M62.2 398L68.2 472.7L147.5 378Z" fill="#ffc779" stroke="#ffc779"></path><path d="M140.5 530.3L113.5 600L190.7 600Z" fill="#ffeed8" stroke="#ffeed8"></path><path d="M858.8 144.3L800.8 35.7L767.5 124.3Z" fill="#fdb752" stroke="#fdb752"></path><path d="M741.5 64.7L776.5 0L664.3 0Z" fill="#ffe6c5" stroke="#ffe6c5"></path><path d="M900 255.7L823.8 278.7L839.8 326.3Z" fill="#fdb752" stroke="#fdb752"></path><path d="M839.8 193L858.8 144.3L767.5 124.3Z" fill="#ffffff" stroke="#ffffff"></path><path d="M152.5 0L94.2 46.7L147.5 46.7Z" fill="#ffe6c5" stroke="#ffe6c5"></path><path d="M800.8 35.7L776.5 0L741.5 64.7Z" fill="#ffffff" stroke="#ffffff"></path><path d="M900 342.3L900 255.7L839.8 326.3Z" fill="#fdb752" stroke="#fdb752"></path><path d="M900 342.3L839.8 326.3L900 370Z" fill="#fdb752" stroke="#fdb752"></path><path d="M900 370L839.8 326.3L844.8 393Z" fill="#fff7ec" stroke="#fff7ec"></path><path d="M741.5 552.3L846.8 527.3L829.8 475.7Z" fill="#fdb752" stroke="#fdb752"></path><path d="M900 465.7L900 370L844.8 393Z" fill="#fdb752" stroke="#fdb752"></path><path d="M685.3 600L780.5 600L741.5 552.3Z" fill="#fdb752" stroke="#fdb752"></path><path d="M0 209L57.2 265.7L78.2 196Z" fill="#ffeed8" stroke="#ffeed8"></path><path d="M57.2 265.7L0 312.3L87.2 333.3Z" fill="#ffeed8" stroke="#ffeed8"></path><path d="M62.2 398L0 424L68.2 472.7Z" fill="#fdb752" stroke="#fdb752"></path><path d="M0 268.7L0 312.3L57.2 265.7Z" fill="#ffd69f" stroke="#ffd69f"></path><path d="M900 465.7L844.8 393L829.8 475.7Z" fill="#febf66" stroke="#febf66"></path><path d="M900 255.7L900 184L839.8 193Z" fill="#fcaf3c" stroke="#fcaf3c"></path><path d="M858.8 144.3L900 95.7L800.8 35.7Z" fill="#ffdeb2" stroke="#ffdeb2"></path><path d="M0 160.3L0 209L78.2 196Z" fill="#ffeed8" stroke="#ffeed8"></path><path d="M0 160.3L78.2 196L65.2 107.3Z" fill="#ffe6c5" stroke="#ffe6c5"></path><path d="M780.5 600L846.8 527.3L741.5 552.3Z" fill="#ffeed8" stroke="#ffeed8"></path><path d="M60.2 558.3L140.5 530.3L68.2 472.7Z" fill="#febf66" stroke="#febf66"></path><path d="M60.2 558.3L113.5 600L140.5 530.3Z" fill="#ffffff" stroke="#ffffff"></path><path d="M0 81.7L0 160.3L65.2 107.3Z" fill="#ffeed8" stroke="#ffeed8"></path><path d="M900 184L900 137.3L858.8 144.3Z" fill="#febf66" stroke="#febf66"></path><path d="M800.8 35.7L847.8 0L776.5 0Z" fill="#fdb752" stroke="#fdb752"></path><path d="M0 312.3L0 424L62.2 398Z" fill="#ffce8c" stroke="#ffce8c"></path><path d="M152.5 0L71.2 0L94.2 46.7Z" fill="#ffeed8" stroke="#ffeed8"></path><path d="M94.2 46.7L0 81.7L65.2 107.3Z" fill="#febf66" stroke="#febf66"></path><path d="M0 554.3L60.2 558.3L68.2 472.7Z" fill="#ffd69f" stroke="#ffd69f"></path><path d="M846.8 527.3L900 465.7L829.8 475.7Z" fill="#ffdeb2" stroke="#ffdeb2"></path><path d="M780.5 600L819.8 600L846.8 527.3Z" fill="#fdb752" stroke="#fdb752"></path><path d="M846.8 527.3L900 526.3L900 465.7Z" fill="#ffe6c5" stroke="#ffe6c5"></path><path d="M60.2 558.3L83.2 600L113.5 600Z" fill="#ffe6c5" stroke="#ffe6c5"></path><path d="M900 137.3L900 95.7L858.8 144.3Z" fill="#ffce8c" stroke="#ffce8c"></path><path d="M900 95.7L847.8 0L800.8 35.7Z" fill="#ffdeb2" stroke="#ffdeb2"></path><path d="M0 424L0 469.7L68.2 472.7Z" fill="#ffc779" stroke="#ffc779"></path><path d="M60.2 558.3L0 600L83.2 600Z" fill="#ffdeb2" stroke="#ffdeb2"></path><path d="M71.2 0L0 81.7L94.2 46.7Z" fill="#ffeed8" stroke="#ffeed8"></path><path d="M900 600L900 526.3L846.8 527.3Z" fill="#ffeed8" stroke="#ffeed8"></path><path d="M0 469.7L0 554.3L68.2 472.7Z" fill="#fcaf3c" stroke="#fcaf3c"></path><path d="M900 95.7L900 0L847.8 0Z" fill="#fff7ec" stroke="#fff7ec"></path><path d="M71.2 0L0 0L0 81.7Z" fill="#ffffff" stroke="#ffffff"></path><path d="M819.8 600L900 600L846.8 527.3Z" fill="#ffce8c" stroke="#ffce8c"></path><path d="M0 554.3L0 600L60.2 558.3Z" fill="#ffeed8" stroke="#ffeed8"></path></g></svg>