<svg xmlns="http://www.w3.org/2000/svg" version="1.1" xmlns:xlink="http://www.w3.org/1999/xlink" xmlns:svgjs="http://svgjs.com/svgjs" width="600" height="600" preserveAspectRatio="none" viewBox="0 0 600 600"><g mask="url(&quot;#SvgjsMask2446&quot;)" fill="none"><rect width="600" height="600" x="0" y="0" fill="rgba(255, 171, 46, 1)"></rect><use xlink:href="#SvgjsG2451" transform="translate(0, 0)" fill="rgba(255, 189, 94, 1)"></use><use xlink:href="#SvgjsG2451" transform="translate(0, 405.99999999999994)" fill="rgba(255, 189, 94, 1)"></use><use xlink:href="#SvgjsG2451" transform="translate(405.99999999999994, 0)" fill="rgba(255, 189, 94, 1)"></use><use xlink:href="#SvgjsG2451" transform="translate(405.99999999999994, 405.99999999999994)" fill="rgba(255, 189, 94, 1)"></use></g><defs><mask id="SvgjsMask2446"><rect width="600" height="600" fill="#ffffff"></rect></mask><g id="SvgjsG2448"><path d="M7.713 15.485C3.459 15.485 0 12.025 0 7.768 0 3.513 3.459 0.051 7.713 0.051S15.432 3.513 15.432 7.768c0 4.257-3.465 7.716-7.719 7.717z m0-1.91c3.201 0 5.81-2.604 5.81-5.809 0-3.199-2.61-5.807-5.81-5.807-3.202 0-5.804 2.609-5.804 5.807-0.001 3.206 2.602 5.809 5.804 5.809z"></path><path d="M7.753 8.787a0.574 0.574 0 0 1-0.554-0.042 0.578 0.578 0 0 1-0.259-0.399L6.931 3.862a0.58 0.58 0 0 1 1.162 0v3.478l2.975-1.4a0.578 0.578 0 0 1 0.773 0.275c0.138 0.292 0.011 0.637-0.276 0.774l-3.81 1.798z"></path></g><g id="SvgjsG2450"><path d="M11.221 11.657c-2.056 2.056-5.389 2.055-7.444 0-2.056-2.056-2.056-5.389 0-7.444 0.976-0.977 2.617-2.176 5.214-2.176 4.749 0 6.224-1.252 6.224-1.252 0 5.707-1.938 8.816-3.994 10.872z"></path><path d="M3.223 11.626L2.552 10.224l6.437-4.363z"></path><path d="M8.989 5.861l1.15 1.15-8.203 8.203-1.151-1.15z"></path></g><g id="SvgjsG2447"><path d="M11.675 13.031H3.563V2.436h8.112v10.595z m-4.054 1.54a0.457 0.457 0 1 1 0-0.912 0.457 0.457 0 0 1 0 0.912zM6.921 1.287h1.395c0.196 0 0.196 0.356 0 0.356h-1.397c-0.199 0-0.199-0.356 0-0.356zM11.495 0.409H3.744C3.413 0.409 3.143 0.761 3.143 1.191V14.276c0 0.427 0.267 0.779 0.601 0.778h7.751c0.332 0 0.604-0.35 0.605-0.778V1.191c0-0.432-0.272-0.782-0.605-0.782z" fill-rule="evenodd"></path></g><g id="SvgjsG2449"><path d="M7.996 16h-0.001c-2.137-0.001-4.145-0.834-5.655-2.345C0.829 12.142-0.002 10.132 0 7.995-0.002 5.861 0.828 3.853 2.338 2.342 3.848 0.832 5.855 0 7.99 0h0.01C10.136 0 12.146 0.832 13.656 2.342c1.51 1.51 2.342 3.518 2.344 5.653-0.002 2.139-0.835 4.148-2.346 5.66-1.512 1.511-3.521 2.344-5.658 2.345z m-0.006-14.161c-1.644 0-3.189 0.64-4.351 1.804-1.162 1.163-1.801 2.708-1.8 4.352-0.001 1.648 0.639 3.196 1.802 4.359 1.163 1.164 2.709 1.805 4.354 1.807 3.398-0.002 6.163-2.768 6.167-6.166-0.002-3.394-2.765-6.155-6.16-6.155h-0.01z"></path><path d="M8.692 7.143V5.35c0.511 0.037 0.91 0.544 0.957 1.062h1.697c0.002-1.741-1.581-2.657-2.672-2.724v-1.175H7.056v1.175c-0.476 0.004-2.622 0.611-2.62 2.558-0.003 1.733 1.545 2.206 2.62 2.358v1.959c-0.783-0.222-0.926-0.824-1.036-1.323h-1.723c0.11 1.949 1.823 2.856 2.759 2.995v1.202h1.636v-1.184c1.294-0.07 2.827-1.187 2.829-2.716-0.002-1.758-1.529-2.256-2.829-2.393zM7.064 6.855c-1.152-0.018-1.175-1.281 0-1.488v1.488z m1.645 3.717V8.883c1.427 0.039 1.586 1.462 0 1.689z"></path></g><g id="SvgjsG2451"><use xlink:href="#SvgjsG2447" transform="translate(0, 0) scale(1.4)" fill="rgba(255, 189, 94, 1)"></use><use xlink:href="#SvgjsG2448" transform="translate(0, 40.599999999999994) scale(1.4)" fill="rgba(255, 189, 94, 1)"></use><use xlink:href="#SvgjsG2449" transform="translate(0, 81.19999999999999) scale(1.4)" fill="rgba(255, 189, 94, 1)"></use><use xlink:href="#SvgjsG2449" transform="translate(0, 121.79999999999998) scale(1.4)" fill="rgba(255, 189, 94, 1)"></use><use xlink:href="#SvgjsG2447" transform="translate(0, 162.39999999999998) scale(1.4)" fill="rgba(255, 189, 94, 1)"></use><use xlink:href="#SvgjsG2447" transform="translate(0, 202.99999999999997) scale(1.4)" fill="rgba(255, 189, 94, 1)"></use><use xlink:href="#SvgjsG2448" transform="translate(0, 243.59999999999997) scale(1.4)" fill="rgba(255, 189, 94, 1)"></use><use xlink:href="#SvgjsG2449" transform="translate(0, 284.19999999999993) scale(1.4)" fill="rgba(255, 189, 94, 1)"></use><use xlink:href="#SvgjsG2450" transform="translate(0, 324.79999999999995) scale(1.4)" fill="rgba(255, 189, 94, 1)"></use><use xlink:href="#SvgjsG2449" transform="translate(0, 365.4) scale(1.4)" fill="rgba(255, 189, 94, 1)"></use><use xlink:href="#SvgjsG2448" transform="translate(40.599999999999994, 0) scale(1.4)" fill="rgba(255, 189, 94, 1)"></use><use xlink:href="#SvgjsG2447" transform="translate(40.599999999999994, 40.599999999999994) scale(1.4)" fill="rgba(255, 189, 94, 1)"></use><use xlink:href="#SvgjsG2448" transform="translate(40.599999999999994, 81.19999999999999) scale(1.4)" fill="rgba(255, 189, 94, 1)"></use><use xlink:href="#SvgjsG2448" transform="translate(40.599999999999994, 121.79999999999998) scale(1.4)" fill="rgba(255, 189, 94, 1)"></use><use xlink:href="#SvgjsG2448" transform="translate(40.599999999999994, 162.39999999999998) scale(1.4)" fill="rgba(255, 189, 94, 1)"></use><use xlink:href="#SvgjsG2450" transform="translate(40.599999999999994, 202.99999999999997) scale(1.4)" fill="rgba(255, 189, 94, 1)"></use><use xlink:href="#SvgjsG2447" transform="translate(40.599999999999994, 243.59999999999997) scale(1.4)" fill="rgba(255, 189, 94, 1)"></use><use xlink:href="#SvgjsG2450" transform="translate(40.599999999999994, 284.19999999999993) scale(1.4)" fill="rgba(255, 189, 94, 1)"></use><use xlink:href="#SvgjsG2447" transform="translate(40.599999999999994, 324.79999999999995) scale(1.4)" fill="rgba(255, 189, 94, 1)"></use><use xlink:href="#SvgjsG2447" transform="translate(40.599999999999994, 365.4) scale(1.4)" fill="rgba(255, 189, 94, 1)"></use><use xlink:href="#SvgjsG2449" transform="translate(81.19999999999999, 0) scale(1.4)" fill="rgba(255, 189, 94, 1)"></use><use xlink:href="#SvgjsG2449" transform="translate(81.19999999999999, 40.599999999999994) scale(1.4)" fill="rgba(255, 189, 94, 1)"></use><use xlink:href="#SvgjsG2450" transform="translate(81.19999999999999, 81.19999999999999) scale(1.4)" fill="rgba(255, 189, 94, 1)"></use><use xlink:href="#SvgjsG2449" transform="translate(81.19999999999999, 121.79999999999998) scale(1.4)" fill="rgba(255, 189, 94, 1)"></use><use xlink:href="#SvgjsG2447" transform="translate(81.19999999999999, 162.39999999999998) scale(1.4)" fill="rgba(255, 189, 94, 1)"></use><use xlink:href="#SvgjsG2450" transform="translate(81.19999999999999, 202.99999999999997) scale(1.4)" fill="rgba(255, 189, 94, 1)"></use><use xlink:href="#SvgjsG2447" transform="translate(81.19999999999999, 243.59999999999997) scale(1.4)" fill="rgba(255, 189, 94, 1)"></use><use xlink:href="#SvgjsG2447" transform="translate(81.19999999999999, 284.19999999999993) scale(1.4)" fill="rgba(255, 189, 94, 1)"></use><use xlink:href="#SvgjsG2448" transform="translate(81.19999999999999, 324.79999999999995) scale(1.4)" fill="rgba(255, 189, 94, 1)"></use><use xlink:href="#SvgjsG2448" transform="translate(81.19999999999999, 365.4) scale(1.4)" fill="rgba(255, 189, 94, 1)"></use><use xlink:href="#SvgjsG2448" transform="translate(121.79999999999998, 0) scale(1.4)" fill="rgba(255, 189, 94, 1)"></use><use xlink:href="#SvgjsG2448" transform="translate(121.79999999999998, 40.599999999999994) scale(1.4)" fill="rgba(255, 189, 94, 1)"></use><use xlink:href="#SvgjsG2450" transform="translate(121.79999999999998, 81.19999999999999) scale(1.4)" fill="rgba(255, 189, 94, 1)"></use><use xlink:href="#SvgjsG2448" transform="translate(121.79999999999998, 121.79999999999998) scale(1.4)" fill="rgba(255, 189, 94, 1)"></use><use xlink:href="#SvgjsG2448" transform="translate(121.79999999999998, 162.39999999999998) scale(1.4)" fill="rgba(255, 189, 94, 1)"></use><use xlink:href="#SvgjsG2450" transform="translate(121.79999999999998, 202.99999999999997) scale(1.4)" fill="rgba(255, 189, 94, 1)"></use><use xlink:href="#SvgjsG2450" transform="translate(121.79999999999998, 243.59999999999997) scale(1.4)" fill="rgba(255, 189, 94, 1)"></use><use xlink:href="#SvgjsG2447" transform="translate(121.79999999999998, 284.19999999999993) scale(1.4)" fill="rgba(255, 189, 94, 1)"></use><use xlink:href="#SvgjsG2447" transform="translate(121.79999999999998, 324.79999999999995) scale(1.4)" fill="rgba(255, 189, 94, 1)"></use><use xlink:href="#SvgjsG2447" transform="translate(121.79999999999998, 365.4) scale(1.4)" fill="rgba(255, 189, 94, 1)"></use><use xlink:href="#SvgjsG2450" transform="translate(162.39999999999998, 0) scale(1.4)" fill="rgba(255, 189, 94, 1)"></use><use xlink:href="#SvgjsG2448" transform="translate(162.39999999999998, 40.599999999999994) scale(1.4)" fill="rgba(255, 189, 94, 1)"></use><use xlink:href="#SvgjsG2447" transform="translate(162.39999999999998, 81.19999999999999) scale(1.4)" fill="rgba(255, 189, 94, 1)"></use><use xlink:href="#SvgjsG2448" transform="translate(162.39999999999998, 121.79999999999998) scale(1.4)" fill="rgba(255, 189, 94, 1)"></use><use xlink:href="#SvgjsG2450" transform="translate(162.39999999999998, 162.39999999999998) scale(1.4)" fill="rgba(255, 189, 94, 1)"></use><use xlink:href="#SvgjsG2448" transform="translate(162.39999999999998, 202.99999999999997) scale(1.4)" fill="rgba(255, 189, 94, 1)"></use><use xlink:href="#SvgjsG2447" transform="translate(162.39999999999998, 243.59999999999997) scale(1.4)" fill="rgba(255, 189, 94, 1)"></use><use xlink:href="#SvgjsG2447" transform="translate(162.39999999999998, 284.19999999999993) scale(1.4)" fill="rgba(255, 189, 94, 1)"></use><use xlink:href="#SvgjsG2447" transform="translate(162.39999999999998, 324.79999999999995) scale(1.4)" fill="rgba(255, 189, 94, 1)"></use><use xlink:href="#SvgjsG2448" transform="translate(162.39999999999998, 365.4) scale(1.4)" fill="rgba(255, 189, 94, 1)"></use><use xlink:href="#SvgjsG2448" transform="translate(202.99999999999997, 0) scale(1.4)" fill="rgba(255, 189, 94, 1)"></use><use xlink:href="#SvgjsG2447" transform="translate(202.99999999999997, 40.599999999999994) scale(1.4)" fill="rgba(255, 189, 94, 1)"></use><use xlink:href="#SvgjsG2447" transform="translate(202.99999999999997, 81.19999999999999) scale(1.4)" fill="rgba(255, 189, 94, 1)"></use><use xlink:href="#SvgjsG2449" transform="translate(202.99999999999997, 121.79999999999998) scale(1.4)" fill="rgba(255, 189, 94, 1)"></use><use xlink:href="#SvgjsG2450" transform="translate(202.99999999999997, 162.39999999999998) scale(1.4)" fill="rgba(255, 189, 94, 1)"></use><use xlink:href="#SvgjsG2447" transform="translate(202.99999999999997, 202.99999999999997) scale(1.4)" fill="rgba(255, 189, 94, 1)"></use><use xlink:href="#SvgjsG2449" transform="translate(202.99999999999997, 243.59999999999997) scale(1.4)" fill="rgba(255, 189, 94, 1)"></use><use xlink:href="#SvgjsG2450" transform="translate(202.99999999999997, 284.19999999999993) scale(1.4)" fill="rgba(255, 189, 94, 1)"></use><use xlink:href="#SvgjsG2447" transform="translate(202.99999999999997, 324.79999999999995) scale(1.4)" fill="rgba(255, 189, 94, 1)"></use><use xlink:href="#SvgjsG2450" transform="translate(202.99999999999997, 365.4) scale(1.4)" fill="rgba(255, 189, 94, 1)"></use><use xlink:href="#SvgjsG2450" transform="translate(243.59999999999997, 0) scale(1.4)" fill="rgba(255, 189, 94, 1)"></use><use xlink:href="#SvgjsG2447" transform="translate(243.59999999999997, 40.599999999999994) scale(1.4)" fill="rgba(255, 189, 94, 1)"></use><use xlink:href="#SvgjsG2448" transform="translate(243.59999999999997, 81.19999999999999) scale(1.4)" fill="rgba(255, 189, 94, 1)"></use><use xlink:href="#SvgjsG2448" transform="translate(243.59999999999997, 121.79999999999998) scale(1.4)" fill="rgba(255, 189, 94, 1)"></use><use xlink:href="#SvgjsG2450" transform="translate(243.59999999999997, 162.39999999999998) scale(1.4)" fill="rgba(255, 189, 94, 1)"></use><use xlink:href="#SvgjsG2450" transform="translate(243.59999999999997, 202.99999999999997) scale(1.4)" fill="rgba(255, 189, 94, 1)"></use><use xlink:href="#SvgjsG2447" transform="translate(243.59999999999997, 243.59999999999997) scale(1.4)" fill="rgba(255, 189, 94, 1)"></use><use xlink:href="#SvgjsG2448" transform="translate(243.59999999999997, 284.19999999999993) scale(1.4)" fill="rgba(255, 189, 94, 1)"></use><use xlink:href="#SvgjsG2449" transform="translate(243.59999999999997, 324.79999999999995) scale(1.4)" fill="rgba(255, 189, 94, 1)"></use><use xlink:href="#SvgjsG2450" transform="translate(243.59999999999997, 365.4) scale(1.4)" fill="rgba(255, 189, 94, 1)"></use><use xlink:href="#SvgjsG2450" transform="translate(284.19999999999993, 0) scale(1.4)" fill="rgba(255, 189, 94, 1)"></use><use xlink:href="#SvgjsG2450" transform="translate(284.19999999999993, 40.599999999999994) scale(1.4)" fill="rgba(255, 189, 94, 1)"></use><use xlink:href="#SvgjsG2450" transform="translate(284.19999999999993, 81.19999999999999) scale(1.4)" fill="rgba(255, 189, 94, 1)"></use><use xlink:href="#SvgjsG2449" transform="translate(284.19999999999993, 121.79999999999998) scale(1.4)" fill="rgba(255, 189, 94, 1)"></use><use xlink:href="#SvgjsG2450" transform="translate(284.19999999999993, 162.39999999999998) scale(1.4)" fill="rgba(255, 189, 94, 1)"></use><use xlink:href="#SvgjsG2448" transform="translate(284.19999999999993, 202.99999999999997) scale(1.4)" fill="rgba(255, 189, 94, 1)"></use><use xlink:href="#SvgjsG2449" transform="translate(284.19999999999993, 243.59999999999997) scale(1.4)" fill="rgba(255, 189, 94, 1)"></use><use xlink:href="#SvgjsG2447" transform="translate(284.19999999999993, 284.19999999999993) scale(1.4)" fill="rgba(255, 189, 94, 1)"></use><use xlink:href="#SvgjsG2447" transform="translate(284.19999999999993, 324.79999999999995) scale(1.4)" fill="rgba(255, 189, 94, 1)"></use><use xlink:href="#SvgjsG2448" transform="translate(284.19999999999993, 365.4) scale(1.4)" fill="rgba(255, 189, 94, 1)"></use><use xlink:href="#SvgjsG2448" transform="translate(324.79999999999995, 0) scale(1.4)" fill="rgba(255, 189, 94, 1)"></use><use xlink:href="#SvgjsG2448" transform="translate(324.79999999999995, 40.599999999999994) scale(1.4)" fill="rgba(255, 189, 94, 1)"></use><use xlink:href="#SvgjsG2450" transform="translate(324.79999999999995, 81.19999999999999) scale(1.4)" fill="rgba(255, 189, 94, 1)"></use><use xlink:href="#SvgjsG2449" transform="translate(324.79999999999995, 121.79999999999998) scale(1.4)" fill="rgba(255, 189, 94, 1)"></use><use xlink:href="#SvgjsG2449" transform="translate(324.79999999999995, 162.39999999999998) scale(1.4)" fill="rgba(255, 189, 94, 1)"></use><use xlink:href="#SvgjsG2448" transform="translate(324.79999999999995, 202.99999999999997) scale(1.4)" fill="rgba(255, 189, 94, 1)"></use><use xlink:href="#SvgjsG2448" transform="translate(324.79999999999995, 243.59999999999997) scale(1.4)" fill="rgba(255, 189, 94, 1)"></use><use xlink:href="#SvgjsG2447" transform="translate(324.79999999999995, 284.19999999999993) scale(1.4)" fill="rgba(255, 189, 94, 1)"></use><use xlink:href="#SvgjsG2449" transform="translate(324.79999999999995, 324.79999999999995) scale(1.4)" fill="rgba(255, 189, 94, 1)"></use><use xlink:href="#SvgjsG2448" transform="translate(324.79999999999995, 365.4) scale(1.4)" fill="rgba(255, 189, 94, 1)"></use><use xlink:href="#SvgjsG2450" transform="translate(365.4, 0) scale(1.4)" fill="rgba(255, 189, 94, 1)"></use><use xlink:href="#SvgjsG2450" transform="translate(365.4, 40.599999999999994) scale(1.4)" fill="rgba(255, 189, 94, 1)"></use><use xlink:href="#SvgjsG2449" transform="translate(365.4, 81.19999999999999) scale(1.4)" fill="rgba(255, 189, 94, 1)"></use><use xlink:href="#SvgjsG2449" transform="translate(365.4, 121.79999999999998) scale(1.4)" fill="rgba(255, 189, 94, 1)"></use><use xlink:href="#SvgjsG2447" transform="translate(365.4, 162.39999999999998) scale(1.4)" fill="rgba(255, 189, 94, 1)"></use><use xlink:href="#SvgjsG2448" transform="translate(365.4, 202.99999999999997) scale(1.4)" fill="rgba(255, 189, 94, 1)"></use><use xlink:href="#SvgjsG2448" transform="translate(365.4, 243.59999999999997) scale(1.4)" fill="rgba(255, 189, 94, 1)"></use><use xlink:href="#SvgjsG2448" transform="translate(365.4, 284.19999999999993) scale(1.4)" fill="rgba(255, 189, 94, 1)"></use><use xlink:href="#SvgjsG2447" transform="translate(365.4, 324.79999999999995) scale(1.4)" fill="rgba(255, 189, 94, 1)"></use><use xlink:href="#SvgjsG2450" transform="translate(365.4, 365.4) scale(1.4)" fill="rgba(255, 189, 94, 1)"></use></g></defs></svg>